<svg width="70" height="21" viewBox="0 0 70 21" fill="none" xmlns="http://www.w3.org/2000/svg">
<path d="M25.98 16V5.92H29.977C30.6583 5.92 31.216 6.05767 31.65 6.333C32.0887 6.60367 32.413 6.95133 32.623 7.376C32.8377 7.80067 32.945 8.23933 32.945 8.692C32.945 9.24733 32.812 9.71867 32.546 10.106C32.2847 10.4933 31.9277 10.7547 31.475 10.89V10.54C32.1097 10.6847 32.5903 10.9857 32.917 11.443C33.2483 11.9003 33.414 12.4207 33.414 13.004C33.414 13.6013 33.2997 14.124 33.071 14.572C32.8423 15.02 32.5017 15.37 32.049 15.622C31.601 15.874 31.0457 16 30.383 16H25.98ZM27.688 14.411H30.173C30.467 14.411 30.7307 14.3527 30.964 14.236C31.1973 14.1147 31.3793 13.9467 31.51 13.732C31.6453 13.5127 31.713 13.2537 31.713 12.955C31.713 12.6843 31.6547 12.4417 31.538 12.227C31.4213 12.0123 31.251 11.842 31.027 11.716C30.803 11.5853 30.5347 11.52 30.222 11.52H27.688V14.411ZM27.688 9.945H29.956C30.1987 9.945 30.4157 9.89833 30.607 9.805C30.7983 9.71167 30.95 9.574 31.062 9.392C31.174 9.21 31.23 8.986 31.23 8.72C31.23 8.37 31.118 8.07833 30.894 7.845C30.67 7.61167 30.3573 7.495 29.956 7.495H27.688V9.945ZM38.151 16.21C37.395 16.21 36.7347 16.0397 36.17 15.699C35.6054 15.3583 35.1667 14.8893 34.854 14.292C34.546 13.69 34.392 12.9993 34.392 12.22C34.392 11.4267 34.5507 10.7313 34.868 10.134C35.1854 9.53667 35.6264 9.07 36.191 8.734C36.7557 8.398 37.409 8.23 38.151 8.23C38.9117 8.23 39.5744 8.40033 40.139 8.741C40.7037 9.08167 41.1424 9.553 41.455 10.155C41.7677 10.7523 41.924 11.4407 41.924 12.22C41.924 13.004 41.7654 13.697 41.448 14.299C41.1354 14.8963 40.6967 15.3653 40.132 15.706C39.5674 16.042 38.907 16.21 38.151 16.21ZM38.151 14.628C38.823 14.628 39.3224 14.404 39.649 13.956C39.9757 13.508 40.139 12.9293 40.139 12.22C40.139 11.4873 39.9734 10.904 39.642 10.47C39.3107 10.0313 38.8137 9.812 38.151 9.812C37.6984 9.812 37.325 9.91467 37.031 10.12C36.7417 10.3207 36.527 10.603 36.387 10.967C36.247 11.3263 36.177 11.744 36.177 12.22C36.177 12.9527 36.3427 13.5383 36.674 13.977C37.01 14.411 37.5024 14.628 38.151 14.628ZM46.9593 7.586C46.572 7.586 46.2173 7.49033 45.8953 7.299C45.5733 7.10767 45.3167 6.85333 45.1253 6.536C44.934 6.214 44.8383 5.857 44.8383 5.465H46.1543C46.1543 5.689 46.2313 5.88033 46.3853 6.039C46.544 6.193 46.7353 6.27 46.9593 6.27C47.1833 6.27 47.3723 6.193 47.5263 6.039C47.685 5.88033 47.7643 5.689 47.7643 5.465H49.0803C49.0803 5.857 48.9847 6.214 48.7933 6.536C48.602 6.85333 48.3453 7.10767 48.0233 7.299C47.7013 7.49033 47.3467 7.586 46.9593 7.586ZM50.0183 8.44V16H48.4013V11.065L44.8033 16H43.4523V8.44H45.0693V13.249L48.6813 8.44H50.0183ZM53.8809 16V9.938H51.3539V8.44H58.0949V9.938H55.5679V16H53.8809ZM65.9734 8.44V16H64.3564V11.065L60.7584 16H59.4074V8.44H61.0244V13.249L64.6364 8.44H65.9734Z" fill="#F7F7F7"/>
<path d="M9.51416 2.99999L15 2.99999C16.1046 2.99999 17 3.89542 17 4.99999L17 16.8118C17 17.9163 16.1046 18.8118 15 18.8118L9.51416 18.8118" stroke="#FAFBFE" stroke-width="1.5" stroke-linecap="round" stroke-linejoin="round"/>
<path d="M1 10.1558C0.585786 10.1558 0.25 10.4915 0.25 10.9058C0.25 11.32 0.585786 11.6558 1 11.6558L1 10.1558ZM12.1097 11.4361C12.4026 11.1432 12.4026 10.6683 12.1097 10.3754L7.33671 5.60246C7.04382 5.30957 6.56895 5.30957 6.27605 5.60246C5.98316 5.89535 5.98316 6.37023 6.27605 6.66312L10.5187 10.9058L6.27605 15.1484C5.98316 15.4413 5.98316 15.9162 6.27605 16.2091C6.56895 16.502 7.04382 16.502 7.33671 16.2091L12.1097 11.4361ZM1 11.6558L11.5794 11.6558L11.5794 10.1558L1 10.1558L1 11.6558Z" fill="#FAFBFE"/>
</svg>
