<svg width="181" height="56" viewBox="0 0 181 56" fill="none" xmlns="http://www.w3.org/2000/svg">
<path d="M23.9598 34.959L24.0407 35.1209L24.2432 35.1614C24.1217 35.0804 24.0407 34.9995 23.9598 34.959Z" fill="#2FF0C2"/>
<path d="M16.4741 42.4021C16.3527 42.3616 16.2717 42.2806 16.2312 42.1591L15.7859 39.4465L13.2757 39.2846C13.1542 39.2846 13.0327 39.2036 12.9923 39.0821C12.9518 38.9607 12.9923 38.8392 13.0732 38.7582L18.458 33.8593C17.0005 34.1022 14.6522 34.0212 13.1137 33.6164C12.9923 33.5759 12.8303 33.5354 12.7088 33.4949H12.6279C12.3849 33.4139 12.1015 33.333 11.9396 33.09C11.7372 32.8066 11.6562 32.4827 11.7372 32.1588C11.7372 32.0779 11.7776 31.9969 11.8181 31.9159L9.34842 31.2681C8.09332 30.9442 6.75725 30.8633 5.46166 31.0657C4.77338 31.1871 4.24705 31.3491 3.84218 31.592C0.360294 33.6164 -1.01626 37.7865 0.805652 40.904C1.61539 42.2806 2.91098 43.2523 4.53046 43.6976C4.12559 45.3171 4.32802 46.9366 5.13777 48.3132C6.02848 49.8112 7.5265 50.8638 9.34842 51.2282C11.1703 51.5926 13.0732 51.2687 14.7737 50.2565C15.1381 50.0541 15.5429 49.6897 15.9478 49.1634C16.798 48.1512 17.3649 46.9366 17.6888 45.6815L19.7941 37.6651L16.798 42.2806C16.7171 42.3616 16.5956 42.4425 16.4741 42.4021Z" fill="#2FF0C2"/>
<path d="M12.7461 28.1628C12.6651 27.6365 13.0295 27.3531 13.4343 27.2721C13.4748 27.2721 13.5153 27.2721 13.5153 27.2721C15.0943 27.0292 19.1025 28.0009 20.9244 30.3896C21.1674 30.2682 21.4508 30.2277 21.7342 30.2277L24.1229 21.1181C24.4468 19.863 24.5278 18.5674 24.2849 17.2718C24.1634 16.624 24.0015 16.1382 23.799 15.7738C21.7747 12.2919 17.6045 10.9154 14.487 12.7373C13.1104 13.547 12.1388 14.8426 11.6934 16.4621C10.0739 16.0572 8.45443 16.2597 7.07788 17.0694C3.96037 18.8913 3.06966 23.1829 5.1345 26.6648C5.33693 27.0292 5.70132 27.4341 6.22765 27.839C7.23982 28.6892 8.45443 29.256 9.70953 29.5799L12.3817 30.2682C12.5841 29.5394 12.827 28.7702 12.7461 28.1628Z" fill="#2FF0C2"/>
<path d="M30.4815 37.5918C30.198 37.7133 29.9146 37.6728 29.6717 37.6323H29.5907C29.4693 37.5918 29.3073 37.5918 29.1859 37.5513C27.5664 37.1465 25.3396 36.0938 24.206 35.2031L24.0035 35.1626L26.5947 42.0859C26.6352 42.2073 26.5947 42.3288 26.5137 42.4098C26.4328 42.4907 26.3113 42.5312 26.1898 42.4503L23.8821 41.4381L22.2626 43.6244C22.1816 43.7054 22.0602 43.7863 21.9387 43.7458C21.8172 43.7054 21.7363 43.6244 21.6958 43.4624L21.2099 38.7659L19.307 46.0536C18.9831 47.3087 18.9022 48.6448 19.1046 49.9404C19.2261 50.6286 19.388 51.155 19.6309 51.5598C20.6026 53.2603 22.1006 54.4749 23.8821 55.0822C24.5299 55.2846 25.2181 55.4061 25.8659 55.4061C26.9591 55.4061 28.0117 55.1632 28.9834 54.5964C30.36 53.7866 31.3317 52.491 31.777 50.8716C33.3965 51.2764 35.016 51.074 36.3926 50.2643C39.5101 48.4423 40.4008 44.1507 38.3359 40.6688C38.1335 40.3044 37.7691 39.8996 37.2428 39.4542C36.2306 38.604 35.016 38.0372 33.7609 37.6728L31.0483 36.944C30.9268 37.2274 30.7244 37.4704 30.4815 37.5918Z" fill="#2FF0C2"/>
<path d="M42.6664 26.4644C41.8567 25.0878 40.5611 24.1161 38.9416 23.6708C39.3465 22.0513 39.1441 20.4318 38.3343 19.0553C36.5124 15.8973 32.2208 15.0471 28.7389 17.0714C28.2935 17.3143 27.8077 17.8002 27.2814 18.4885C26.5526 19.4601 26.0263 20.5533 25.7024 21.7274L23.3136 30.756C23.4351 30.8775 23.5566 30.9585 23.678 31.1204C26.3906 29.8248 30.3989 30.7965 31.6944 31.7682C31.7349 31.7682 31.7349 31.8087 31.7754 31.8087C32.0993 32.0516 32.2613 32.497 31.9779 32.9018C31.6135 33.4686 31.411 34.4403 31.2896 35.3715L34.1237 36.1003C35.4192 36.4242 36.7553 36.5457 38.0509 36.3027C38.6987 36.1813 39.225 36.0193 39.5894 35.8169C41.2899 34.8452 42.5045 33.3472 43.1118 31.5658C43.7191 29.7843 43.5571 27.9624 42.6664 26.4644Z" fill="#2FF0C2"/>
<path d="M70.18 44.2144C71.8714 44.2144 73.4436 43.6903 74.7538 42.7851C74.8967 42.7136 74.9443 42.5231 74.9443 42.3801V36.0197C74.9443 35.7101 74.6823 35.448 74.3964 35.448H69.7989C69.4654 35.448 69.251 35.7101 69.251 36.0197V38.0922C69.251 38.4019 69.4654 38.6401 69.7989 38.6401H71.2758C71.5617 38.6401 71.7761 38.8783 71.7761 39.188V39.9741C71.7761 40.522 71.657 40.7603 71.2758 40.927H71.252C70.9185 41.0223 70.5612 41.0461 70.18 41.0461C67.4643 41.0461 65.3919 38.9498 65.3919 36.2341C65.3919 33.4946 67.4643 31.3983 70.18 31.3983C70.99 31.3983 71.7522 31.5889 72.3954 31.8986C72.4907 31.9462 72.6098 31.9939 72.7051 31.9939C72.8957 31.9939 73.0863 31.8986 73.2054 31.7318L74.2059 29.9452C74.3488 29.6832 74.2535 29.3497 74.0153 29.2067C72.8719 28.5874 71.5379 28.2062 70.18 28.2062C65.773 28.2062 62.1998 31.8033 62.1998 36.2341C62.1998 40.665 65.773 44.2144 70.18 44.2144ZM78.2539 44H80.3502C80.636 44 80.8981 43.738 80.8981 43.4521V28.9924C80.8981 28.635 80.636 28.4206 80.3502 28.4206H78.2539C77.9442 28.4206 77.706 28.635 77.706 28.9924V43.4521C77.706 43.738 77.9442 44 78.2539 44ZM84.16 44H86.2563C86.566 44 86.8042 43.738 86.8042 43.4521V38.5687C86.8042 38.3066 86.9948 38.0922 87.233 38.0922H92.9978C93.2837 38.0922 93.5457 37.854 93.5457 37.5443V35.448C93.5457 35.1622 93.2837 34.9001 92.9978 34.9001H87.233C86.9948 34.9001 86.8042 34.6857 86.8042 34.4237V32.0892C86.8042 31.851 86.9948 31.6127 87.233 31.6127H92.9978C93.2837 31.6127 93.5457 31.3507 93.5457 31.041V28.9924C93.5457 28.6589 93.2837 28.4206 92.9978 28.4206H84.16C83.8503 28.4206 83.6121 28.635 83.6121 28.9924V43.4521C83.6121 43.738 83.8503 44 84.16 44ZM92.5878 28.9924V31.041C92.5878 31.3507 92.826 31.6127 93.1357 31.6127H96.0896C96.3278 31.6127 96.5184 31.8986 96.5184 32.1606V43.4521C96.5184 43.738 96.7804 44 97.0663 44H99.1626C99.4723 44 99.7105 43.738 99.7105 43.4521V32.0892C99.7105 31.851 99.9011 31.6127 100.163 31.6127H103.093C103.379 31.6127 103.641 31.3507 103.641 31.041V28.9924C103.641 28.6589 103.379 28.4206 103.093 28.4206H93.1357C92.826 28.4206 92.5878 28.6589 92.5878 28.9924Z" fill="#2FF0C2"/>
<path d="M107.677 29.1242L111.345 37.0568C111.488 37.4141 111.655 37.6761 111.655 38.0096V43.4648C111.655 43.7507 111.893 44.0127 112.203 44.0127H114.299C114.585 44.0127 114.847 43.7507 114.847 43.4648V38.0096C114.847 37.7 115.014 37.295 115.133 37.0091L118.778 29.1242C118.945 28.7907 118.825 28.4333 118.492 28.4333H116.539C116.062 28.4333 115.776 28.4333 115.633 28.743L113.466 33.3168C113.442 33.4121 113.37 33.4597 113.275 33.4597C113.156 33.4597 113.013 33.3644 112.918 33.1738L110.845 28.743C110.678 28.4333 110.393 28.4333 109.94 28.4333H107.963C107.629 28.4333 107.534 28.7907 107.677 29.1242ZM126.275 44.2271C130.73 44.2271 134.303 40.6777 134.303 36.2468C134.303 31.816 130.73 28.2189 126.275 28.2189C121.868 28.2189 118.295 31.816 118.295 36.2468C118.295 40.6777 121.868 44.2271 126.275 44.2271ZM121.487 36.2468C121.487 33.5073 123.56 31.411 126.275 31.411C129.039 31.411 131.111 33.5073 131.111 36.2468C131.111 38.9625 129.039 41.0588 126.275 41.0588C123.56 41.0588 121.487 38.9625 121.487 36.2468ZM141.667 44.2271C145.669 44.2271 147.455 41.9879 147.455 37.7714V29.005C147.455 28.6477 147.193 28.4333 146.907 28.4333H144.811C144.501 28.4333 144.263 28.6477 144.263 29.005V36.6756C144.263 39.701 143.81 41.0588 141.667 41.0588C139.546 41.0588 139.094 39.701 139.094 36.6756V29.005C139.094 28.6477 138.856 28.4333 138.546 28.4333H136.473C136.164 28.4333 135.925 28.6477 135.925 29.005V37.7714C135.925 41.9879 137.688 44.2271 141.667 44.2271Z" fill="#2FF0C2"/>
<path d="M54.9582 44.0127H57.0545C57.3403 44.0127 57.6024 43.7507 57.6024 43.4648V29.005C57.6024 28.6477 57.3403 28.4333 57.0545 28.4333H54.9582C54.6485 28.4333 54.4103 28.6477 54.4103 29.005V43.4648C54.4103 43.7507 54.6485 44.0127 54.9582 44.0127Z" fill="#2FF0C2"/>
</svg>
