<svg width="103" height="67" viewBox="0 0 103 67" fill="none" xmlns="http://www.w3.org/2000/svg">
<g filter="url(#filter0_d_2114_2208)">
<rect x="15" y="11.0088" width="72.6572" height="36" rx="18" fill="white"/>
</g>
<circle cx="70" cy="29" r="18" fill="#202D30"/>
<rect x="62.5" y="21.8105" width="15" height="3.33964" rx="1.66982" fill="#FAFBFE"/>
<rect x="62.5" y="27.2337" width="15" height="3.33964" rx="1.66982" fill="#FAFBFE"/>
<rect x="62.5" y="32.6561" width="15" height="3.33964" rx="1.66982" fill="#FAFBFE"/>
<path d="M25.6572 24.6211C25.6572 22.6981 27.2162 21.1392 29.1392 21.1392C31.0622 21.1392 32.6211 22.6981 32.6211 24.6211V28.1031H29.1392C27.2162 28.1031 25.6572 26.5441 25.6572 24.6211Z" fill="#202D30"/>
<path d="M33.6934 24.6206C33.6934 22.6976 35.2523 21.1387 37.1753 21.1387C39.0983 21.1387 40.6573 22.6976 40.6573 24.6206C40.6573 26.5437 39.0983 28.1026 37.1753 28.1026H33.6934V24.6206Z" fill="#202D30"/>
<path d="M25.6572 32.6567C25.6572 30.7337 27.2162 29.1747 29.1392 29.1747H32.6211V32.6567C32.6211 34.5797 31.0622 36.1387 29.1392 36.1387C27.2162 36.1387 25.6572 34.5797 25.6572 32.6567Z" fill="#202D30"/>
<path d="M33.6934 29.1747H37.1753C39.0983 29.1747 40.6573 30.7337 40.6573 32.6567C40.6573 34.5797 39.0983 36.1387 37.1753 36.1387C35.2523 36.1387 33.6934 34.5797 33.6934 32.6567V29.1747Z" fill="#202D30"/>
<defs>
<filter id="filter0_d_2114_2208" x="0" y="0.00878906" width="102.657" height="66" filterUnits="userSpaceOnUse" color-interpolation-filters="sRGB">
<feFlood flood-opacity="0" result="BackgroundImageFix"/>
<feColorMatrix in="SourceAlpha" type="matrix" values="0 0 0 0 0 0 0 0 0 0 0 0 0 0 0 0 0 0 127 0" result="hardAlpha"/>
<feOffset dy="4"/>
<feGaussianBlur stdDeviation="7.5"/>
<feColorMatrix type="matrix" values="0 0 0 0 0.918247 0 0 0 0 0.931393 0 0 0 0 0.970833 0 0 0 0.25 0"/>
<feBlend mode="multiply" in2="BackgroundImageFix" result="effect1_dropShadow_2114_2208"/>
<feBlend mode="normal" in="SourceGraphic" in2="effect1_dropShadow_2114_2208" result="shape"/>
</filter>
</defs>
</svg>
